<svg xmlns="http://www.w3.org/2000/svg" width="32" height="19" viewBox="0 0 32 19"><path d="M30.586,62.6H28.735a1.871,1.871,0,0,0,.383-.691H31.11a.684.684,0,0,0,.692-.674V58.092a.689.689,0,0,0-.691-.678l-.3,0a.977.977,0,0,1-.746-.427l-1.442-2.473a1.206,1.206,0,0,0-.958-.543H21.306a1.293,1.293,0,0,0-.982.521l-1.693,2.556a1.5,1.5,0,0,1-.789.541l-1.484.335a.862.862,0,0,0-.65.8v2.519a.684.684,0,0,0,.692.674h1.106a1.87,1.87,0,0,0,.383.691H15.748a.9.9,0,0,1-.915-.891V53.406a1.4,1.4,0,0,0-1.414-1.377H10.647a2.641,2.641,0,0,0-2.005,1.064L5.618,57.658a3.929,3.929,0,0,1-1.6,1.265L1.247,59.961A2.013,2.013,0,0,0,0,61.729v5.146a1.4,1.4,0,0,0,1.414,1.377H2.885a3.983,3.983,0,0,0,7.591,0h8.456a3.983,3.983,0,0,0,7.591,0h4.062A1.4,1.4,0,0,0,32,66.875v-2.9A1.4,1.4,0,0,0,30.586,62.6ZM6.681,69.09a1.914,1.914,0,1,1,1.964-1.913A1.939,1.939,0,0,1,6.681,69.09Zm5.761-10.484a.909.909,0,0,1-.939.9l-3.524-.067c-.516-.01-.719-.369-.45-.8l2.506-4a1.876,1.876,0,0,1,1.429-.781H11.5a.93.93,0,0,1,.939.915v3.832ZM26.3,61.386a.962.962,0,1,1,.961.937A.949.949,0,0,1,26.3,61.386Zm-1.165-6.52h2.023a.854.854,0,0,1,.678.394L28.9,57.193c.12.217.011.394-.242.394H25.134V54.866Zm-5.354,2.34,1.227-1.957a.919.919,0,0,1,.7-.382h2.322v2.722H20C19.747,57.587,19.648,57.416,19.78,57.205Zm-.416,3.244a.937.937,0,1,1-.961.937A.949.949,0,0,1,19.364,60.449Zm3.364,8.641a1.914,1.914,0,1,1,1.964-1.913A1.939,1.939,0,0,1,22.728,69.09ZM20.839,62.6a1.871,1.871,0,0,0,.383-.691H25.4a1.87,1.87,0,0,0,.383.691Z" transform="translate(0 -52.029)" fill="#fff"/></svg>