<svg xmlns="http://www.w3.org/2000/svg" width="40" height="40" viewBox="0 0 40 40"><g transform="translate(-1591 -443)"><g transform="translate(1591 443)" fill="#fff" stroke="#fff" stroke-width="2"><circle cx="20" cy="20" r="20" stroke="none"/><circle cx="20" cy="20" r="19" fill="none"/></g><g transform="translate(1600.296 448.181)"><path d="M20.083,12.521a.6.6,0,0,0-.044-.044l-.75-.657c.622-.128,1.292-.6,1.292-1.086,0-.565-.865-.766-1.6-.766-.772,0-.861.48-.87.818L16.172,9.094a2.886,2.886,0,0,0-1.7-.631H6.933a2.886,2.886,0,0,0-1.7.631L3.3,10.787c-.01-.339-.1-.818-.87-.818-.739,0-1.6.2-1.6.766,0,.485.67.958,1.292,1.086l-.75.657c-.017.015-.029.029-.044.044A3.669,3.669,0,0,0,0,15.135v2.489a2.163,2.163,0,0,0,.687,1.561v.965a1.1,1.1,0,0,0,1.161,1.025h1.4A1.1,1.1,0,0,0,4.414,20.15V19.9H17v.247a1.1,1.1,0,0,0,1.161,1.025h1.4a1.1,1.1,0,0,0,1.161-1.025v-.965a2.161,2.161,0,0,0,.687-1.561V15.135A3.665,3.665,0,0,0,20.083,12.521ZM5.948,9.846a2.052,2.052,0,0,1,.985-.362h7.543a2.052,2.052,0,0,1,.985.362L18,12.078H3.41ZM.871,14.759a1.148,1.148,0,0,1,1.182-1.11c.652,0,2.784,1.135,2.784,1.748s-2.132.471-2.784.471A1.146,1.146,0,0,1,.871,14.759Zm3.543,4.053h-.45l-1.335,0a2.652,2.652,0,0,1-.817-.358,1.108,1.108,0,0,1-.221-.2.777.777,0,0,1-.124-.206.874.874,0,0,1,.177-.817H3.922l1.519,1.581Zm9.567,0H7.429A1.185,1.185,0,0,1,6.192,17.69h9.026A1.184,1.184,0,0,1,13.981,18.813Zm.288-1.888H7.141c-.743,0-1.346-.831-1.346-1.855h9.818C15.614,16.094,15.011,16.925,14.268,16.925Zm5.675,1.122a.783.783,0,0,1-.125.205,1.084,1.084,0,0,1-.221.2,2.628,2.628,0,0,1-.817.358l-1.335,0H15.967l1.52-1.581h2.278A.872.872,0,0,1,19.943,18.047Zm-.586-2.18c-.652,0-2.784.141-2.784-.471s2.132-1.748,2.784-1.748a1.112,1.112,0,1,1,0,2.219Z" transform="translate(0 0)" fill="#df4844"/></g></g></svg>