<svg xmlns="http://www.w3.org/2000/svg" width="32" height="19" viewBox="0 0 32 19"><g transform="translate(0 -63.127)"><path d="M7.1,233.308a3.061,3.061,0,0,0,.538-.317,4.314,4.314,0,0,0,.793-.869c.058-.076.116-.151.174-.226a.694.694,0,0,1,.5-.264h.044a.694.694,0,0,1,.487.2q.111.109.22.221a4.29,4.29,0,0,0,1.149.933,2.808,2.808,0,0,0,1.156.263,1.89,1.89,0,0,0,.561-.079l.012,0a2.649,2.649,0,0,0,.888-.409,2.735,2.735,0,0,0,.732-.823l.565-.987.143-.249a.693.693,0,0,1,.6-.349h0a.693.693,0,0,1,.6.343l.181.309c.07.12.14.244.206.363a4.7,4.7,0,0,0,.814,1.174l.005,0a2.51,2.51,0,0,0,1.619.678h.035a2.745,2.745,0,0,0,1.554-.469,5.148,5.148,0,0,0,.789-.739c.083-.089.169-.181.256-.271a.693.693,0,0,1,.5-.21h.037a.693.693,0,0,1,.509.265c.067.086.134.174.2.262.157.206.3.4.463.574a2.953,2.953,0,0,0,1.029.7,2.862,2.862,0,0,0,.592.152,2.489,2.489,0,0,0,.985-.036,2.817,2.817,0,0,0,1.006-.432,5.367,5.367,0,0,0,.853-.811l.042-.046a.693.693,0,0,1,.512-.226l.051,0a.693.693,0,0,1,.524.3l.056.084c.134.2.264.393.4.567L32,225.537H0Zm.084-6.169H8.76v.751H7.181Zm-.963,0v.751H4.64v-.751Z" transform="translate(0 -153.177)" fill="#fff"/><path d="M103.682,70.746h-.673V66.259h-6.18V64.526h2.426a.366.366,0,0,0,0-.732H96.828v-.051a.616.616,0,0,0-1.232,0v.051H93.17a.366.366,0,1,0,0,.732H95.6v1.733H89.473l-1.9,2.352H86.392l-1.929,2.134H82.888L80,74.249l24.672-.072ZM85.815,72.931h0ZM87.3,69.776h2.311v.866H87.3Zm2.369,3.154h0Zm.866-5.507h2.311v.866H90.532Zm.616,2.352h2.311v.866H91.148Zm2.369,3.154h0Zm.866-5.507h2.311v.866H94.383ZM95,69.776h2.311v.866H95Zm2.369,3.154h0Zm.866-5.507h2.311v.866H98.234Zm.616,2.352h2.311v.866H98.85Zm2.369,3.154h0Z" transform="translate(-73.839)" fill="#fff"/><path d="M35.74,298.212a6.724,6.724,0,0,1-.726-.964,6.177,6.177,0,0,1-1.011.958,3.524,3.524,0,0,1-2.486.585,3.155,3.155,0,0,1-.745-.193,3.657,3.657,0,0,1-1.278-.865c-.256-.278-.477-.592-.709-.888a8.107,8.107,0,0,1-1.15,1.1,3.445,3.445,0,0,1-1.934.59h-.047a3.2,3.2,0,0,1-2.09-.862,6.914,6.914,0,0,1-1.154-1.7l-.181-.309-.707,1.236a3.409,3.409,0,0,1-.915,1.031,3.33,3.33,0,0,1-1.113.522,2.582,2.582,0,0,1-.767.111,3.512,3.512,0,0,1-1.448-.328,5.879,5.879,0,0,1-1.565-1.289,6.1,6.1,0,0,1-1.1,1.226,3.528,3.528,0,0,1-2.069.707q-.129,0-.259-.011a4.126,4.126,0,0,1-1.242-.307,4.119,4.119,0,0,1-.968-.627l-.233-.181s-.289.331-.436.466a4.858,4.858,0,0,1-.734.574,4.278,4.278,0,0,1-.683.331,4.607,4.607,0,0,1-.874.217v.02c.1,0,.192.007.287.007a4.267,4.267,0,0,0,.832-.076,3.573,3.573,0,0,0,.994-.369,4.641,4.641,0,0,0,.423-.257l.088-.06c.035-.024.1-.071.1-.071s.163.15.234.213a4.92,4.92,0,0,0,.815.581,4.368,4.368,0,0,0,1.814.509q.149.014.3.014a4.379,4.379,0,0,0,2.235-.669,4.253,4.253,0,0,0,.394-.277l.094-.075c.022-.018.027-.027.033-.027s.011.008.03.025c.041.037.084.073.126.109a4.391,4.391,0,0,0,.475.349,4.652,4.652,0,0,0,1.582.633,4.511,4.511,0,0,0,.893.088,4.17,4.17,0,0,0,1.245-.182,4.689,4.689,0,0,0,2.128-1.315,4.643,4.643,0,0,0,3.419,1.521,4.081,4.081,0,0,0,.863-.091,4.9,4.9,0,0,0,1.663-.676,4.279,4.279,0,0,0,.459-.348c.037-.031.073-.063.108-.1.053.045.106.088.161.131a4.329,4.329,0,0,0,.426.294,4.452,4.452,0,0,0,2.309.647,4.349,4.349,0,0,0,.831-.08,4.264,4.264,0,0,0,2.536-1.544,4.022,4.022,0,0,0,1.614.949,3.637,3.637,0,0,0,1.095.157c.1,0,.2,0,.3-.009v-.023l-.114-.016A4.034,4.034,0,0,1,35.74,298.212Z" transform="translate(-6.566 -217.902)" fill="#fff"/></g></svg>