<svg xmlns="http://www.w3.org/2000/svg" width="32" height="19" viewBox="0 0 32 19"><g transform="translate(0 -8.463)"><path d="M30.018,14.529a.9.9,0,0,0-.065-.066l-1.121-.982c.93-.191,1.931-.9,1.931-1.623,0-.845-1.293-1.145-2.4-1.145-1.153,0-1.287.717-1.3,1.223l-2.893-2.53a4.313,4.313,0,0,0-2.536-.943H10.364a4.314,4.314,0,0,0-2.535.943l-2.893,2.53c-.015-.507-.149-1.223-1.3-1.223-1.1,0-2.4.3-2.4,1.145,0,.725,1,1.432,1.932,1.623l-1.121.982c-.025.022-.043.044-.065.066A5.484,5.484,0,0,0,0,18.436v3.72a3.233,3.233,0,0,0,1.027,2.333v1.443a1.646,1.646,0,0,0,1.736,1.531h2.1A1.644,1.644,0,0,0,6.6,25.932v-.369H25.4v.369a1.644,1.644,0,0,0,1.736,1.531h2.1a1.645,1.645,0,0,0,1.735-1.531V24.489A3.231,3.231,0,0,0,32,22.156v-3.72A5.478,5.478,0,0,0,30.018,14.529Zm-21.127-4a3.067,3.067,0,0,1,1.473-.541H21.638a3.067,3.067,0,0,1,1.473.541L26.9,13.866H5.1ZM1.3,17.873a1.715,1.715,0,0,1,1.766-1.659c.975,0,4.162,1.7,4.162,2.613s-3.187.7-4.162.7A1.713,1.713,0,0,1,1.3,17.873Zm5.3,6.058H5.925l-2,0A3.963,3.963,0,0,1,2.709,23.4a1.656,1.656,0,0,1-.33-.3,1.162,1.162,0,0,1-.185-.307,1.306,1.306,0,0,1,.265-1.221H5.863l2.27,2.364Zm14.3,0H11.1a1.771,1.771,0,0,1-1.85-1.677H22.747A1.77,1.77,0,0,1,20.9,23.933Zm.43-2.822H10.675c-1.11,0-2.012-1.242-2.012-2.773H23.338C23.338,19.87,22.437,21.111,21.327,21.111Zm8.482,1.678a1.171,1.171,0,0,1-.186.307,1.62,1.62,0,0,1-.33.3,3.928,3.928,0,0,1-1.221.535l-2,0H23.867l2.272-2.364h3.4A1.3,1.3,0,0,1,29.809,22.789Zm-.875-3.258c-.974,0-4.161.211-4.161-.7s3.187-2.613,4.161-2.613a1.662,1.662,0,1,1,0,3.316Z" transform="translate(0 0)" fill="#fff"/></g></svg>