<svg xmlns="http://www.w3.org/2000/svg" width="24.64" height="18.769" viewBox="0 0 24.64 18.769"><g transform="translate(0 0)"><path d="M22.474,61H2.166A2.169,2.169,0,0,0,0,63.166V77.6a2.169,2.169,0,0,0,2.166,2.166H22.474A2.169,2.169,0,0,0,24.64,77.6V63.166A2.169,2.169,0,0,0,22.474,61Zm-.3,1.444-9.809,9.809L2.472,62.444ZM1.444,77.3V63.458L8.4,70.351Zm1.021,1.021,6.957-6.957,2.438,2.417a.722.722,0,0,0,1.019,0l2.377-2.377,6.92,6.92ZM23.2,77.3l-6.92-6.92,6.92-6.92Z" transform="translate(0 -61)" fill="#fff"/></g></svg>