<svg xmlns="http://www.w3.org/2000/svg" width="23.35" height="23.204" viewBox="0 0 23.35 23.204"><path d="M4.681,23.239a2.577,2.577,0,0,0,.46-.23,18.593,18.593,0,0,0,3.42-4.371,2.44,2.44,0,0,0,.387-1.693c-.123-.437-.326-.667-1.235-1.4a6.806,6.806,0,0,1-.759-.678A1.786,1.786,0,0,1,6.706,14a6.435,6.435,0,0,1,.962-2.693A11.527,11.527,0,0,1,9.593,9.044,10.617,10.617,0,0,1,12.12,7.259c1.123-.559,1.81-.7,2.312-.467a1.861,1.861,0,0,1,.3.169c.038.035.334.395.656.793.621.782.763.908,1.189,1.054a2.054,2.054,0,0,0,1.649-.149c.422-.218,1.342-.789,1.936-1.2a28.542,28.542,0,0,0,2.68-2.184,1.741,1.741,0,0,0,.2-1.812A8.494,8.494,0,0,0,20.885.769,3.06,3.06,0,0,0,19.04.007a2.684,2.684,0,0,0-1.446.3A30.424,30.424,0,0,0,4.5,10.385,28.545,28.545,0,0,0,.433,17.78c-.541,1.49-.567,2.138-.123,2.9a8.545,8.545,0,0,0,1.6,1.563,5.545,5.545,0,0,0,1.81,1.084,2.083,2.083,0,0,0,.959-.088Z" transform="translate(0 23.204) rotate(-90)" fill="#fff"/></svg>