<svg xmlns="http://www.w3.org/2000/svg" width="293.155" height="86.669" viewBox="0 0 293.155 86.669"><g transform="translate(-51.52 -224.22)"><g transform="translate(135.664 274.167)"><path d="M291.646,391.692H285.74V363.25h5.906Z" transform="translate(-285.74 -363.25)" fill="#fff"/><path d="M342.487,383.116a6.109,6.109,0,0,1,2.45,1.89,6.021,6.021,0,0,1,1.2,2.7,18.573,18.573,0,0,1,.194,3.108l-.04,13.256h-5.633V390.678a4.426,4.426,0,0,0-.384-1.969,2.743,2.743,0,0,0-2.7-1.466,3.155,3.155,0,0,0-3.143,1.89,5.954,5.954,0,0,0-.445,2.411v12.523h-5.54V391.544a7.072,7.072,0,0,0-.384-2.72,2.691,2.691,0,0,0-2.72-1.523,3.255,3.255,0,0,0-3.165,1.523,5.888,5.888,0,0,0-.445,2.587v12.656H316.15V383.073H321.5v3.068a8.915,8.915,0,0,1,1.929-2.335,7.638,7.638,0,0,1,8.047-.176,6.189,6.189,0,0,1,1.814,2.529,6.951,6.951,0,0,1,2.684-2.72,8.191,8.191,0,0,1,3.783-.869A7.478,7.478,0,0,1,342.487,383.116Z" transform="translate(-305.225 -375.629)" fill="#fff"/><path d="M431.634,385.31q2.576,2.721,2.572,7.99,0,5.556-2.515,8.471a8.164,8.164,0,0,1-6.477,2.914,6.785,6.785,0,0,1-4.2-1.254,8.128,8.128,0,0,1-1.785-2.026v10.961H413.79V383.053h5.267v3.107a8.858,8.858,0,0,1,1.9-2.163,7.032,7.032,0,0,1,4.39-1.408A8.321,8.321,0,0,1,431.634,385.31Zm-4.221,3.955a3.914,3.914,0,0,0-3.636-1.872,4.134,4.134,0,0,0-4.153,2.838,10.614,10.614,0,0,0-.586,3.819q0,3.664,1.969,5.152a4.521,4.521,0,0,0,2.77.869,4.025,4.025,0,0,0,3.539-1.775,9.3,9.3,0,0,0,.1-9.032Z" transform="translate(-367.788 -375.642)" fill="#fff"/><path d="M496.658,401.127q-2.662,3.287-8.083,3.287t-8.083-3.287a13.053,13.053,0,0,1,0-15.8q2.662-3.336,8.083-3.337t8.083,3.337a13.053,13.053,0,0,1,0,15.8Zm-4.4-3.039a9.815,9.815,0,0,0,0-9.739,4.885,4.885,0,0,0-7.419,0,9.744,9.744,0,0,0,0,9.739,4.871,4.871,0,0,0,7.419,0Z" transform="translate(-408.822 -375.258)" fill="#fff"/><path d="M560.184,382.5c.072.007.226.014.474.029v5.633q-.523-.059-.927-.075c-.269-.014-.489-.018-.657-.018q-3.319,0-4.458,2.163a8.422,8.422,0,0,0-.636,3.743v10.052h-5.54V382.992h5.249v3.668a11.544,11.544,0,0,1,2.22-2.874,6.036,6.036,0,0,1,4.013-1.293A1.54,1.54,0,0,1,560.184,382.5Z" transform="translate(-454.065 -375.577)" fill="#fff"/><path d="M585.4,377.872v-3.916h2.931V368.09h5.443v5.867h3.416v3.916h-3.416v11.115a2.514,2.514,0,0,0,.327,1.613,3.614,3.614,0,0,0,2.008.32c.165,0,.345,0,.532-.011s.37-.014.55-.029v4.11l-2.6.1q-3.9.135-5.324-1.351a4.018,4.018,0,0,1-.927-2.914V377.876H585.4Z" transform="translate(-477.747 -366.351)" fill="#fff"/><path d="M633.812,363.25h6.725L650.6,391.692h-6.445l-1.875-5.845H631.8l-1.929,5.845H623.66Zm-.392,17.7h7.286l-3.593-11.191Z" transform="translate(-502.262 -363.25)" fill="#fff"/><path d="M712.687,383.867v12.678a6.621,6.621,0,0,0,.424,2.7,2.922,2.922,0,0,0,2.939,1.6,3.839,3.839,0,0,0,3.84-2.278,8.264,8.264,0,0,0,.539-3.262V383.867H726V404.9h-5.346v-2.971c-.05.065-.18.259-.384.578a3.775,3.775,0,0,1-.733.848,7.537,7.537,0,0,1-2.493,1.581,8.454,8.454,0,0,1-2.82.424q-4.656,0-6.272-3.359a12.865,12.865,0,0,1-.905-5.461V383.86h5.637Z" transform="translate(-555.694 -376.456)" fill="#fff"/><path d="M768.66,377.872v-3.916h2.931V368.09h5.443v5.867h3.417v3.916h-3.417v11.115a2.515,2.515,0,0,0,.327,1.613,3.614,3.614,0,0,0,2.008.32c.165,0,.345,0,.532-.011s.37-.014.55-.029v4.11l-2.6.1q-3.9.135-5.324-1.351a4.018,4.018,0,0,1-.927-2.914V377.876H768.66Z" transform="translate(-595.171 -366.351)" fill="#fff"/><path d="M826.548,401.127q-2.662,3.287-8.083,3.287t-8.083-3.287a13.053,13.053,0,0,1,0-15.8q2.662-3.336,8.083-3.337t8.083,3.337a13.053,13.053,0,0,1,0,15.8Zm-4.4-3.039a9.815,9.815,0,0,0,0-9.739,4.885,4.885,0,0,0-7.419,0,9.744,9.744,0,0,0,0,9.739,4.871,4.871,0,0,0,7.419,0Z" transform="translate(-620.198 -375.258)" fill="#fff"/></g><path d="M62.955,302.608H51.52l64.794-78.388h0Z" fill="#fff"/><path d="M115.145,302.608H103.71l51.71-78.388h0Z" transform="translate(-33.441)" fill="#fff"/><path d="M227.261,302.608H215.83l11.431-78.388h0Z" transform="translate(-105.282)" fill="#fff"/></g></svg>