<svg xmlns="http://www.w3.org/2000/svg" width="25.486" height="18.16" viewBox="0 0 25.486 18.16"><path d="M167.688,48.892c0-.029.02-.057.019-.086L159.929,56.3l7.768,7.255c0-.052-.009-.1-.009-.157Z" transform="translate(-142.22 -47.065)" fill="#df4844"/><path d="M26.312,126.9l-3.175,3.055a.83.83,0,0,1-1.142.009l-3.166-2.951-7.819,7.537a1.8,1.8,0,0,0,.608.121H33.505a1.8,1.8,0,0,0,.874-.241Z" transform="translate(-9.791 -116.513)" fill="#df4844"/><path d="M18.213,44.786l11.87-11.434a1.8,1.8,0,0,0-.917-.267H7.278a1.8,1.8,0,0,0-1.148.428Z" transform="translate(-5.451 -33.085)" fill="#df4844"/><path d="M0,52.1V66.327a1.806,1.806,0,0,0,.078.471L7.8,59.362Z" transform="translate(0 -49.994)" fill="#df4844"/></svg>