<svg xmlns="http://www.w3.org/2000/svg" width="16" height="16" viewBox="0 0 16 16"><path d="M8,16c-2.171,0-2.453-.009-3.3-.048A5.929,5.929,0,0,1,2.76,15.58a3.911,3.911,0,0,1-1.417-.923A3.918,3.918,0,0,1,.42,13.239,5.929,5.929,0,0,1,.048,11.3C.009,10.452,0,10.17,0,8S.009,5.559.048,4.7A5.89,5.89,0,0,1,.42,2.76a3.931,3.931,0,0,1,.924-1.417A3.907,3.907,0,0,1,2.76.42,5.9,5.9,0,0,1,4.7.048C5.547.009,5.829,0,8,0s2.452.009,3.3.048A5.928,5.928,0,0,1,13.24.42a3.914,3.914,0,0,1,1.416.922A3.931,3.931,0,0,1,15.58,2.76,5.983,5.983,0,0,1,15.952,4.7C15.99,5.556,16,5.84,16,8s-.009,2.444-.048,3.3a5.981,5.981,0,0,1-.372,1.941,4.1,4.1,0,0,1-2.339,2.341,5.939,5.939,0,0,1-1.943.372C10.452,15.991,10.17,16,8,16ZM7.283,1.439c-1.5,0-1.782.011-2.515.045a4.4,4.4,0,0,0-1.486.276,2.479,2.479,0,0,0-.92.6,2.479,2.479,0,0,0-.6.92,4.416,4.416,0,0,0-.276,1.485C1.45,5.592,1.442,5.843,1.442,8s.008,2.405.046,3.233a4.416,4.416,0,0,0,.276,1.485,2.481,2.481,0,0,0,.6.92,2.479,2.479,0,0,0,.92.6,4.447,4.447,0,0,0,1.486.276c.868.039,1.125.047,3.233.047s2.364-.008,3.233-.047a4.416,4.416,0,0,0,1.485-.276,2.652,2.652,0,0,0,1.518-1.518,4.439,4.439,0,0,0,.276-1.485c.039-.868.047-1.125.047-3.232s-.008-2.363-.047-3.232a4.416,4.416,0,0,0-.276-1.485,2.488,2.488,0,0,0-.6-.92,2.472,2.472,0,0,0-.92-.6,4.416,4.416,0,0,0-1.485-.276C10.406,1.45,10.155,1.442,8,1.442H7.283ZM8,12.108A4.108,4.108,0,1,1,12.108,8,4.113,4.113,0,0,1,8,12.108ZM8,5.334A2.666,2.666,0,1,0,10.667,8,2.67,2.67,0,0,0,8,5.334Zm4.27-.644a.96.96,0,1,1,.96-.96A.961.961,0,0,1,12.271,4.689Z" opacity="0.78"/></svg>