<svg xmlns="http://www.w3.org/2000/svg" width="21.901" height="25.766" viewBox="0 0 21.901 25.766"><path d="M10.956,25.766a1.749,1.749,0,0,1-.945-.319,27.715,27.715,0,0,1-7.138-6.623A13.378,13.378,0,0,1,0,10.716a10.523,10.523,0,0,1,3.225-7.58A10.99,10.99,0,0,1,10.942,0,10.852,10.852,0,0,1,21.9,10.716a13.385,13.385,0,0,1-2.873,8.108,28.24,28.24,0,0,1-7.139,6.623A1.7,1.7,0,0,1,10.956,25.766ZM10.942,7.443A3.611,3.611,0,0,0,7.336,11.05a3.493,3.493,0,0,0,1.058,2.518,3.637,3.637,0,0,0,6.171-2.518,3.639,3.639,0,0,0-3.623-3.607Z" fill="#df4844"/></svg>