<svg xmlns="http://www.w3.org/2000/svg" width="29.222" height="24.058" viewBox="0 0 29.222 24.058"><path d="M14.794,8.937c4.924.048,8.008-.258,8.425,5.2h6c0-8.455-7.374-9.594-14.586-9.594S.052,5.682.052,14.136H6.01C6.471,8.575,9.911,8.889,14.794,8.937Z" transform="translate(-0.022 -4.542)" fill="#df4844"/><path d="M3.007,24.667c1.462,0,2.679.088,2.95-1.351a3.671,3.671,0,0,0,.057-.674H0C0,24.782,1.346,24.667,3.007,24.667Z" transform="translate(0 -12.354)" fill="#df4844"/><path d="M40.837,22.642h-.056a3.213,3.213,0,0,0,.064.674c.285,1.327,1.5,1.244,2.958,1.244,1.669,0,3.022.11,3.022-1.918Z" transform="translate(-17.602 -12.354)" fill="#df4844"/><path d="M21.905,19.125v-.85c0-.38-.438-.4-.979-.4h-.884c-.541,0-.979.024-.979.4v1.3H12.811v-1.3c0-.38-.438-.4-.979-.4h-.884c-.541,0-.979.024-.979.4v1.593c-1.424,1.48-6.085,7.781-6.254,8.543l0,5.09a.854.854,0,0,0,.853.853H27.3a.854.854,0,0,0,.853-.853V28.385c-.168-.741-4.827-7.038-6.252-8.518ZM12.5,29.1a.829.829,0,1,1,.829-.829A.828.828,0,0,1,12.5,29.1Zm0-2.842a.829.829,0,1,1,.829-.829A.828.828,0,0,1,12.5,26.254Zm0-2.841a.829.829,0,1,1,.829-.829A.828.828,0,0,1,12.5,23.413Zm3.41,5.683a.829.829,0,1,1,.829-.829A.829.829,0,0,1,15.914,29.1Zm0-2.842a.829.829,0,1,1,.829-.829A.828.828,0,0,1,15.914,26.254Zm0-2.841a.829.829,0,1,1,.829-.829A.828.828,0,0,1,15.914,23.413Zm3.41,5.683a.829.829,0,1,1,.829-.829A.828.828,0,0,1,19.324,29.1Zm0-2.842a.829.829,0,1,1,.829-.829A.828.828,0,0,1,19.324,26.254Zm0-2.841a.829.829,0,1,1,.829-.829A.828.828,0,0,1,19.324,23.413Z" transform="translate(-1.603 -10.295)" fill="#df4844"/></svg>