<svg xmlns="http://www.w3.org/2000/svg" xmlns:xlink="http://www.w3.org/1999/xlink" width="7.768" height="4.439" viewBox="0 0 7.768 4.439"><defs><clipPath id="a"><path d="M3.884,3.1.947.163A.555.555,0,0,0,.163.947L3.492,4.276a.555.555,0,0,0,.785,0L7.605.947A.555.555,0,1,0,6.821.163Z"/></clipPath></defs><path d="M3.884,3.1.947.163A.555.555,0,0,0,.163.947L3.492,4.276a.555.555,0,0,0,.785,0L7.605.947A.555.555,0,1,0,6.821.163Z"/><g clip-path="url(#a)"><g transform="translate(-2.764 -4.455)"><rect width="13.107" height="13.107"/></g></g></svg>