<svg xmlns="http://www.w3.org/2000/svg" width="18.856" height="14.885" viewBox="0 0 18.856 14.885"><g transform="translate(1413 5856.034)"><path d="M21.678,14H5.179A1.369,1.369,0,0,1,4,12.5,1.369,1.369,0,0,1,5.179,11h16.5a1.369,1.369,0,0,1,1.179,1.5A1.369,1.369,0,0,1,21.678,14Z" transform="translate(-1417 -5861.43)" fill="#be2227" opacity="0"/><path d="M17.141,2.894,1.22,2.316A1.242,1.242,0,0,1,.041,1.137a1.042,1.042,0,0,1,1.1-1.1L17.058.62A1.242,1.242,0,0,1,18.236,1.8,1.042,1.042,0,0,1,17.141,2.894Z" transform="translate(-1408.996 -5856.092) rotate(45)" fill="#be2227"/><path d="M16.975,1.655,1.055,2.233a1.042,1.042,0,0,1-1.1-1.1A1.242,1.242,0,0,1,1.137-.041L17.058-.62a1.042,1.042,0,0,1,1.1,1.1A1.242,1.242,0,0,1,16.975,1.655Z" transform="translate(-1410.546 -5842.758) rotate(-45)" fill="#be2227"/></g></svg>