<svg xmlns="http://www.w3.org/2000/svg" width="15" height="15.002" viewBox="0 0 15 15.002"><path d="M0,15H0L1.875,9.386a1.652,1.652,0,0,1,.387-.634L10.575.472a1.612,1.612,0,0,1,2.278,0l1.676,1.7a1.614,1.614,0,0,1,0,2.278L6.249,12.74a1.7,1.7,0,0,1-.629.387L0,15ZM2.7,10.31,1.7,13.3,4.7,12.3Zm6.84-4.084h0l-4.7,4.7.855.855,4.7-4.7-.849-.849ZM7.947,4.615h0l-4.7,4.7.833.854L8.8,5.464l-.849-.849ZM9.538,3h0l-.854.849L11.15,6.318,12,5.464,9.538,3Zm2.151-1.929h0a.535.535,0,0,0-.38.156L10.3,2.239,12.74,4.727l1.01-1.01.022-.021a.541.541,0,0,0,.156-.382.534.534,0,0,0-.156-.376l-1.7-1.709A.536.536,0,0,0,11.689,1.073Z" transform="translate(0)" fill="#93C54B"/></svg>