<svg xmlns="http://www.w3.org/2000/svg" width="1921.414" height="336.542" viewBox="0 0 1921.414 336.542"><g transform="translate(9.707 142.554)"><path d="M-575.8,755.146l45.714-45.714,45.714,45.714,45.714-45.714,45.714,45.714,45.714-45.714,45.714,45.714,45.714-45.714,45.714,45.714,45.714-45.714,45.714,45.714,45.714-45.714,45.714,45.714,45.714-45.714L64.2,755.146l45.714-45.714,45.714,45.714,45.714-45.714,45.714,45.714,45.714-45.714,45.714,45.714L384.2,709.432l45.714,45.714,45.714-45.714,45.714,45.714,45.714-45.714,45.714,45.714,45.714-45.714L704.2,755.146l45.714-45.714,45.714,45.714,45.714-45.714,45.714,45.714,45.714-45.714,45.714,45.714,45.714-45.714,45.714,45.714,45.714-45.714,45.714,45.714,45.714-45.714,45.714,45.714,45.714-45.714,45.714,45.714" transform="translate(566.803 -850.571)" fill="none" stroke="#000" stroke-width="2"/><path d="M-575.8,755.146l45.714-45.714,45.714,45.714,45.714-45.714,45.714,45.714,45.714-45.714,45.714,45.714,45.714-45.714,45.714,45.714,45.714-45.714,45.714,45.714,45.714-45.714,45.714,45.714,45.714-45.714L64.2,755.146l45.714-45.714,45.714,45.714,45.714-45.714,45.714,45.714,45.714-45.714,45.714,45.714L384.2,709.432l45.714,45.714,45.714-45.714,45.714,45.714,45.714-45.714,45.714,45.714,45.714-45.714L704.2,755.146l45.714-45.714,45.714,45.714,45.714-45.714,45.714,45.714,45.714-45.714,45.714,45.714,45.714-45.714,45.714,45.714,45.714-45.714,45.714,45.714,45.714-45.714,45.714,45.714,45.714-45.714,45.714,45.714" transform="translate(566.803 -834.571)" fill="none" stroke="#000" stroke-width="2"/><path d="M-575.8,755.146l45.714-45.714,45.714,45.714,45.714-45.714,45.714,45.714,45.714-45.714,45.714,45.714,45.714-45.714,45.714,45.714,45.714-45.714,45.714,45.714,45.714-45.714,45.714,45.714,45.714-45.714L64.2,755.146l45.714-45.714,45.714,45.714,45.714-45.714,45.714,45.714,45.714-45.714,45.714,45.714L384.2,709.432l45.714,45.714,45.714-45.714,45.714,45.714,45.714-45.714,45.714,45.714,45.714-45.714L704.2,755.146l45.714-45.714,45.714,45.714,45.714-45.714,45.714,45.714,45.714-45.714,45.714,45.714,45.714-45.714,45.714,45.714,45.714-45.714,45.714,45.714,45.714-45.714,45.714,45.714,45.714-45.714,45.714,45.714" transform="translate(566.803 -818.571)" fill="none" stroke="#000" stroke-width="2"/><path d="M-575.8,755.146l45.714-45.714,45.714,45.714,45.714-45.714,45.714,45.714,45.714-45.714,45.714,45.714,45.714-45.714,45.714,45.714,45.714-45.714,45.714,45.714,45.714-45.714,45.714,45.714,45.714-45.714L64.2,755.146l45.714-45.714,45.714,45.714,45.714-45.714,45.714,45.714,45.714-45.714,45.714,45.714L384.2,709.432l45.714,45.714,45.714-45.714,45.714,45.714,45.714-45.714,45.714,45.714,45.714-45.714L704.2,755.146l45.714-45.714,45.714,45.714,45.714-45.714,45.714,45.714,45.714-45.714,45.714,45.714,45.714-45.714,45.714,45.714,45.714-45.714,45.714,45.714,45.714-45.714,45.714,45.714,45.714-45.714,45.714,45.714" transform="translate(566.803 -802.571)" fill="none" stroke="#000" stroke-width="2"/><path d="M-575.8,755.146l45.714-45.714,45.714,45.714,45.714-45.714,45.714,45.714,45.714-45.714,45.714,45.714,45.714-45.714,45.714,45.714,45.714-45.714,45.714,45.714,45.714-45.714,45.714,45.714,45.714-45.714L64.2,755.146l45.714-45.714,45.714,45.714,45.714-45.714,45.714,45.714,45.714-45.714,45.714,45.714L384.2,709.432l45.714,45.714,45.714-45.714,45.714,45.714,45.714-45.714,45.714,45.714,45.714-45.714L704.2,755.146l45.714-45.714,45.714,45.714,45.714-45.714,45.714,45.714,45.714-45.714,45.714,45.714,45.714-45.714,45.714,45.714,45.714-45.714,45.714,45.714,45.714-45.714,45.714,45.714,45.714-45.714,45.714,45.714" transform="translate(566.803 -786.571)" fill="none" stroke="#000" stroke-width="2"/><path d="M-575.8,755.146l45.714-45.714,45.714,45.714,45.714-45.714,45.714,45.714,45.714-45.714,45.714,45.714,45.714-45.714,45.714,45.714,45.714-45.714,45.714,45.714,45.714-45.714,45.714,45.714,45.714-45.714L64.2,755.146l45.714-45.714,45.714,45.714,45.714-45.714,45.714,45.714,45.714-45.714,45.714,45.714L384.2,709.432l45.714,45.714,45.714-45.714,45.714,45.714,45.714-45.714,45.714,45.714,45.714-45.714L704.2,755.146l45.714-45.714,45.714,45.714,45.714-45.714,45.714,45.714,45.714-45.714,45.714,45.714,45.714-45.714,45.714,45.714,45.714-45.714,45.714,45.714,45.714-45.714,45.714,45.714,45.714-45.714,45.714,45.714" transform="translate(566.803 -770.571)" fill="none" stroke="#000" stroke-width="2"/><path d="M-575.8,755.146l45.714-45.714,45.714,45.714,45.714-45.714,45.714,45.714,45.714-45.714,45.714,45.714,45.714-45.714,45.714,45.714,45.714-45.714,45.714,45.714,45.714-45.714,45.714,45.714,45.714-45.714L64.2,755.146l45.714-45.714,45.714,45.714,45.714-45.714,45.714,45.714,45.714-45.714,45.714,45.714L384.2,709.432l45.714,45.714,45.714-45.714,45.714,45.714,45.714-45.714,45.714,45.714,45.714-45.714L704.2,755.146l45.714-45.714,45.714,45.714,45.714-45.714,45.714,45.714,45.714-45.714,45.714,45.714,45.714-45.714,45.714,45.714,45.714-45.714,45.714,45.714,45.714-45.714,45.714,45.714,45.714-45.714,45.714,45.714" transform="translate(566.803 -754.571)" fill="none" stroke="#000" stroke-width="2"/><path d="M-575.8,755.146l45.714-45.714,45.714,45.714,45.714-45.714,45.714,45.714,45.714-45.714,45.714,45.714,45.714-45.714,45.714,45.714,45.714-45.714,45.714,45.714,45.714-45.714,45.714,45.714,45.714-45.714L64.2,755.146l45.714-45.714,45.714,45.714,45.714-45.714,45.714,45.714,45.714-45.714,45.714,45.714L384.2,709.432l45.714,45.714,45.714-45.714,45.714,45.714,45.714-45.714,45.714,45.714,45.714-45.714L704.2,755.146l45.714-45.714,45.714,45.714,45.714-45.714,45.714,45.714,45.714-45.714,45.714,45.714,45.714-45.714,45.714,45.714,45.714-45.714,45.714,45.714,45.714-45.714,45.714,45.714,45.714-45.714,45.714,45.714" transform="translate(566.803 -738.571)" fill="none" stroke="#000" stroke-width="2"/><path d="M-575.8,755.146l45.714-45.714,45.714,45.714,45.714-45.714,45.714,45.714,45.714-45.714,45.714,45.714,45.714-45.714,45.714,45.714,45.714-45.714,45.714,45.714,45.714-45.714,45.714,45.714,45.714-45.714L64.2,755.146l45.714-45.714,45.714,45.714,45.714-45.714,45.714,45.714,45.714-45.714,45.714,45.714L384.2,709.432l45.714,45.714,45.714-45.714,45.714,45.714,45.714-45.714,45.714,45.714,45.714-45.714L704.2,755.146l45.714-45.714,45.714,45.714,45.714-45.714,45.714,45.714,45.714-45.714,45.714,45.714,45.714-45.714,45.714,45.714,45.714-45.714,45.714,45.714,45.714-45.714,45.714,45.714,45.714-45.714,45.714,45.714" transform="translate(566.803 -722.571)" fill="none" stroke="#000" stroke-width="2"/><path d="M-575.8,755.146l45.714-45.714,45.714,45.714,45.714-45.714,45.714,45.714,45.714-45.714,45.714,45.714,45.714-45.714,45.714,45.714,45.714-45.714,45.714,45.714,45.714-45.714,45.714,45.714,45.714-45.714L64.2,755.146l45.714-45.714,45.714,45.714,45.714-45.714,45.714,45.714,45.714-45.714,45.714,45.714L384.2,709.432l45.714,45.714,45.714-45.714,45.714,45.714,45.714-45.714,45.714,45.714,45.714-45.714L704.2,755.146l45.714-45.714,45.714,45.714,45.714-45.714,45.714,45.714,45.714-45.714,45.714,45.714,45.714-45.714,45.714,45.714,45.714-45.714,45.714,45.714,45.714-45.714,45.714,45.714,45.714-45.714,45.714,45.714" transform="translate(566.803 -706.571)" fill="none" stroke="#000" stroke-width="2"/><path d="M-575.8,755.146l45.714-45.714,45.714,45.714,45.714-45.714,45.714,45.714,45.714-45.714,45.714,45.714,45.714-45.714,45.714,45.714,45.714-45.714,45.714,45.714,45.714-45.714,45.714,45.714,45.714-45.714L64.2,755.146l45.714-45.714,45.714,45.714,45.714-45.714,45.714,45.714,45.714-45.714,45.714,45.714L384.2,709.432l45.714,45.714,45.714-45.714,45.714,45.714,45.714-45.714,45.714,45.714,45.714-45.714L704.2,755.146l45.714-45.714,45.714,45.714,45.714-45.714,45.714,45.714,45.714-45.714,45.714,45.714,45.714-45.714,45.714,45.714,45.714-45.714,45.714,45.714,45.714-45.714,45.714,45.714,45.714-45.714,45.714,45.714" transform="translate(566.803 -690.571)" fill="none" stroke="#000" stroke-width="2"/><path d="M-575.8,755.146l45.714-45.714,45.714,45.714,45.714-45.714,45.714,45.714,45.714-45.714,45.714,45.714,45.714-45.714,45.714,45.714,45.714-45.714,45.714,45.714,45.714-45.714,45.714,45.714,45.714-45.714L64.2,755.146l45.714-45.714,45.714,45.714,45.714-45.714,45.714,45.714,45.714-45.714,45.714,45.714L384.2,709.432l45.714,45.714,45.714-45.714,45.714,45.714,45.714-45.714,45.714,45.714,45.714-45.714L704.2,755.146l45.714-45.714,45.714,45.714,45.714-45.714,45.714,45.714,45.714-45.714,45.714,45.714,45.714-45.714,45.714,45.714,45.714-45.714,45.714,45.714,45.714-45.714,45.714,45.714,45.714-45.714,45.714,45.714" transform="translate(566.803 -674.571)" fill="none" stroke="#000" stroke-width="2"/><path d="M-575.8,755.146l45.714-45.714,45.714,45.714,45.714-45.714,45.714,45.714,45.714-45.714,45.714,45.714,45.714-45.714,45.714,45.714,45.714-45.714,45.714,45.714,45.714-45.714,45.714,45.714,45.714-45.714L64.2,755.146l45.714-45.714,45.714,45.714,45.714-45.714,45.714,45.714,45.714-45.714,45.714,45.714L384.2,709.432l45.714,45.714,45.714-45.714,45.714,45.714,45.714-45.714,45.714,45.714,45.714-45.714L704.2,755.146l45.714-45.714,45.714,45.714,45.714-45.714,45.714,45.714,45.714-45.714,45.714,45.714,45.714-45.714,45.714,45.714,45.714-45.714,45.714,45.714,45.714-45.714,45.714,45.714,45.714-45.714,45.714,45.714" transform="translate(566.803 -658.571)" fill="none" stroke="#000" stroke-width="2"/><path d="M-575.8,755.146l45.714-45.714,45.714,45.714,45.714-45.714,45.714,45.714,45.714-45.714,45.714,45.714,45.714-45.714,45.714,45.714,45.714-45.714,45.714,45.714,45.714-45.714,45.714,45.714,45.714-45.714L64.2,755.146l45.714-45.714,45.714,45.714,45.714-45.714,45.714,45.714,45.714-45.714,45.714,45.714L384.2,709.432l45.714,45.714,45.714-45.714,45.714,45.714,45.714-45.714,45.714,45.714,45.714-45.714L704.2,755.146l45.714-45.714,45.714,45.714,45.714-45.714,45.714,45.714,45.714-45.714,45.714,45.714,45.714-45.714,45.714,45.714,45.714-45.714,45.714,45.714,45.714-45.714,45.714,45.714,45.714-45.714,45.714,45.714" transform="translate(566.803 -642.571)" fill="none" stroke="#000" stroke-width="2"/><path d="M-575.8,755.146l45.714-45.714,45.714,45.714,45.714-45.714,45.714,45.714,45.714-45.714,45.714,45.714,45.714-45.714,45.714,45.714,45.714-45.714,45.714,45.714,45.714-45.714,45.714,45.714,45.714-45.714L64.2,755.146l45.714-45.714,45.714,45.714,45.714-45.714,45.714,45.714,45.714-45.714,45.714,45.714L384.2,709.432l45.714,45.714,45.714-45.714,45.714,45.714,45.714-45.714,45.714,45.714,45.714-45.714L704.2,755.146l45.714-45.714,45.714,45.714,45.714-45.714,45.714,45.714,45.714-45.714,45.714,45.714,45.714-45.714,45.714,45.714,45.714-45.714,45.714,45.714,45.714-45.714,45.714,45.714,45.714-45.714,45.714,45.714" transform="translate(566.803 -626.571)" fill="none" stroke="#000" stroke-width="2"/><path d="M-575.8,755.146l45.714-45.714,45.714,45.714,45.714-45.714,45.714,45.714,45.714-45.714,45.714,45.714,45.714-45.714,45.714,45.714,45.714-45.714,45.714,45.714,45.714-45.714,45.714,45.714,45.714-45.714L64.2,755.146l45.714-45.714,45.714,45.714,45.714-45.714,45.714,45.714,45.714-45.714,45.714,45.714L384.2,709.432l45.714,45.714,45.714-45.714,45.714,45.714,45.714-45.714,45.714,45.714,45.714-45.714L704.2,755.146l45.714-45.714,45.714,45.714,45.714-45.714,45.714,45.714,45.714-45.714,45.714,45.714,45.714-45.714,45.714,45.714,45.714-45.714,45.714,45.714,45.714-45.714,45.714,45.714,45.714-45.714,45.714,45.714" transform="translate(566.803 -610.571)" fill="none" stroke="#000" stroke-width="2"/><path d="M-575.8,755.146l45.714-45.714,45.714,45.714,45.714-45.714,45.714,45.714,45.714-45.714,45.714,45.714,45.714-45.714,45.714,45.714,45.714-45.714,45.714,45.714,45.714-45.714,45.714,45.714,45.714-45.714L64.2,755.146l45.714-45.714,45.714,45.714,45.714-45.714,45.714,45.714,45.714-45.714,45.714,45.714L384.2,709.432l45.714,45.714,45.714-45.714,45.714,45.714,45.714-45.714,45.714,45.714,45.714-45.714L704.2,755.146l45.714-45.714,45.714,45.714,45.714-45.714,45.714,45.714,45.714-45.714,45.714,45.714,45.714-45.714,45.714,45.714,45.714-45.714,45.714,45.714,45.714-45.714,45.714,45.714,45.714-45.714,45.714,45.714" transform="translate(566.803 -594.571)" fill="none" stroke="#000" stroke-width="2"/><path d="M-575.8,755.146l45.714-45.714,45.714,45.714,45.714-45.714,45.714,45.714,45.714-45.714,45.714,45.714,45.714-45.714,45.714,45.714,45.714-45.714,45.714,45.714,45.714-45.714,45.714,45.714,45.714-45.714L64.2,755.146l45.714-45.714,45.714,45.714,45.714-45.714,45.714,45.714,45.714-45.714,45.714,45.714L384.2,709.432l45.714,45.714,45.714-45.714,45.714,45.714,45.714-45.714,45.714,45.714,45.714-45.714L704.2,755.146l45.714-45.714,45.714,45.714,45.714-45.714,45.714,45.714,45.714-45.714,45.714,45.714,45.714-45.714,45.714,45.714,45.714-45.714,45.714,45.714,45.714-45.714,45.714,45.714,45.714-45.714,45.714,45.714" transform="translate(566.803 -578.571)" fill="none" stroke="#000" stroke-width="2"/><path d="M-575.8,755.146l45.714-45.714,45.714,45.714,45.714-45.714,45.714,45.714,45.714-45.714,45.714,45.714,45.714-45.714,45.714,45.714,45.714-45.714,45.714,45.714,45.714-45.714,45.714,45.714,45.714-45.714L64.2,755.146l45.714-45.714,45.714,45.714,45.714-45.714,45.714,45.714,45.714-45.714,45.714,45.714L384.2,709.432l45.714,45.714,45.714-45.714,45.714,45.714,45.714-45.714,45.714,45.714,45.714-45.714L704.2,755.146l45.714-45.714,45.714,45.714,45.714-45.714,45.714,45.714,45.714-45.714,45.714,45.714,45.714-45.714,45.714,45.714,45.714-45.714,45.714,45.714,45.714-45.714,45.714,45.714,45.714-45.714,45.714,45.714" transform="translate(566.803 -562.571)" fill="none" stroke="#000" stroke-width="2"/></g></svg>