<svg xmlns="http://www.w3.org/2000/svg" xmlns:xlink="http://www.w3.org/1999/xlink" width="36" height="36" viewBox="0 0 36 36"><defs><clipPath id="a"><circle cx="18" cy="18" r="18" transform="translate(1441.451 171.581)" fill="#fff" stroke="#707070" stroke-width="1"/></clipPath></defs><g transform="translate(-1441.451 -171.581)" clip-path="url(#a)"><g transform="translate(1440.974 171.104)"><path d="M51.506,8.793H4.17A4.17,4.17,0,0,0,0,12.963V41.1a4.17,4.17,0,0,0,4.17,4.17H51.506a4.17,4.17,0,0,0,4.17-4.17V12.963A4.17,4.17,0,0,0,51.506,8.793Z" transform="translate(0 -8.793)" fill="#f5f5f5"/><g transform="translate(0 0)"><path d="M.21,11.6H55.427a4.17,4.17,0,0,0-3.94-2.806H4.15A4.17,4.17,0,0,0,.21,11.6Z" transform="translate(0.019 -8.793)" fill="#ff4b55"/><rect width="55.675" height="2.806" transform="translate(0 11.224)" fill="#ff4b55"/><rect width="55.675" height="2.806" transform="translate(0 5.611)" fill="#ff4b55"/><path d="M0,26.061a.96.96,0,0,0,.96.96H55.675V24.215H0Z" transform="translate(0 -7.379)" fill="#ff4b55"/><rect width="55.675" height="2.806" transform="translate(0 28.06)" fill="#ff4b55"/><path d="M55.427,39.637H.21a4.171,4.171,0,0,0,3.94,2.806H51.486A4.17,4.17,0,0,0,55.427,39.637Z" transform="translate(0.019 -5.966)" fill="#ff4b55"/><rect width="55.675" height="2.806" transform="translate(0 22.448)" fill="#ff4b55"/></g><path d="M.96,28.435h24a.96.96,0,0,0,.96-.96V9.753a.96.96,0,0,0-.96-.96H4.17A4.17,4.17,0,0,0,0,12.963V27.475A.96.96,0,0,0,.96,28.435Z" transform="translate(0 -8.793)" fill="#41479b"/><g transform="translate(1.55 2.141)"><path d="M2.565,10.817l.212.637.672.005a.091.091,0,0,1,.053.163l-.54.4.2.64a.091.091,0,0,1-.139.1l-.546-.39-.546.391a.091.091,0,0,1-.139-.1l.2-.64-.54-.4a.091.091,0,0,1,.053-.163l.672-.005.212-.637A.09.09,0,0,1,2.565,10.817Z" transform="translate(-1.42 -10.755)" fill="#f5f5f5"/><path d="M2.565,13.87l.212.637.672.005a.091.091,0,0,1,.053.163l-.54.4.2.64a.091.091,0,0,1-.139.1l-.546-.39-.546.391a.091.091,0,0,1-.139-.1l.2-.64-.54-.4a.091.091,0,0,1,.053-.163l.672-.005.212-.637A.09.09,0,0,1,2.565,13.87Z" transform="translate(-1.42 -10.475)" fill="#f5f5f5"/><path d="M2.565,16.923l.212.637.672.005a.091.091,0,0,1,.053.163l-.54.4.2.64a.091.091,0,0,1-.139.1l-.546-.39-.546.391a.091.091,0,0,1-.139-.1l.2-.64-.54-.4a.091.091,0,0,1,.053-.163l.672-.005.212-.637A.09.09,0,0,1,2.565,16.923Z" transform="translate(-1.42 -10.195)" fill="#f5f5f5"/><path d="M2.565,19.977l.212.637.672.005a.091.091,0,0,1,.053.163l-.54.4.2.64a.091.091,0,0,1-.139.1l-.546-.39-.546.391a.091.091,0,0,1-.139-.1l.2-.64-.54-.4a.091.091,0,0,1,.053-.163l.672-.005.212-.637A.09.09,0,0,1,2.565,19.977Z" transform="translate(-1.42 -9.915)" fill="#f5f5f5"/><path d="M2.565,23.03l.212.637.672.005a.091.091,0,0,1,.053.163l-.54.4.2.64a.091.091,0,0,1-.139.1l-.546-.39-.546.391a.091.091,0,0,1-.139-.1l.2-.64-.54-.4a.091.091,0,0,1,.053-.163l.672-.005.212-.637A.09.09,0,0,1,2.565,23.03Z" transform="translate(-1.42 -9.635)" fill="#f5f5f5"/><path d="M4.935,12.314l.212.637.672.005a.091.091,0,0,1,.053.163l-.54.4.2.64a.091.091,0,0,1-.139.1l-.546-.391L4.3,14.26a.091.091,0,0,1-.139-.1l.2-.64-.54-.4a.091.091,0,0,1,.053-.163l.672-.005.212-.637A.09.09,0,0,1,4.935,12.314Z" transform="translate(-1.202 -10.617)" fill="#f5f5f5"/><path d="M4.935,15.367,5.148,16l.672.005a.091.091,0,0,1,.053.163l-.54.4.2.64a.091.091,0,0,1-.139.1l-.546-.391-.546.391a.091.091,0,0,1-.139-.1l.2-.64-.54-.4a.091.091,0,0,1,.053-.163L4.551,16l.212-.637A.09.09,0,0,1,4.935,15.367Z" transform="translate(-1.202 -10.337)" fill="#f5f5f5"/><path d="M4.935,18.42l.212.637.672.005a.091.091,0,0,1,.053.163l-.54.4.2.64a.091.091,0,0,1-.139.1l-.546-.391-.546.391a.091.091,0,0,1-.139-.1l.2-.64-.54-.4a.091.091,0,0,1,.053-.163l.672-.005.212-.637A.09.09,0,0,1,4.935,18.42Z" transform="translate(-1.202 -10.058)" fill="#f5f5f5"/><path d="M4.935,21.474l.212.637.672.005a.091.091,0,0,1,.053.163l-.54.4.2.64a.091.091,0,0,1-.139.1l-.546-.391L4.3,23.42a.091.091,0,0,1-.139-.1l.2-.64-.54-.4a.091.091,0,0,1,.053-.163l.672-.005.212-.637A.09.09,0,0,1,4.935,21.474Z" transform="translate(-1.202 -9.778)" fill="#f5f5f5"/><path d="M7.305,10.817l.212.637.672.005a.091.091,0,0,1,.053.163l-.54.4.2.64a.091.091,0,0,1-.139.1l-.546-.391-.546.391a.091.091,0,0,1-.139-.1l.2-.64-.54-.4a.091.091,0,0,1,.053-.163l.672-.005.212-.637A.09.09,0,0,1,7.305,10.817Z" transform="translate(-0.985 -10.755)" fill="#f5f5f5"/><path d="M7.305,13.87l.212.637.672.005a.091.091,0,0,1,.053.163l-.54.4.2.64a.091.091,0,0,1-.139.1l-.546-.391-.546.391a.091.091,0,0,1-.139-.1l.2-.64-.54-.4a.091.091,0,0,1,.053-.163l.672-.005.212-.637A.09.09,0,0,1,7.305,13.87Z" transform="translate(-0.985 -10.475)" fill="#f5f5f5"/><path d="M7.305,16.923l.212.637.672.005a.091.091,0,0,1,.053.163l-.54.4.2.64a.091.091,0,0,1-.139.1l-.546-.391-.546.391a.091.091,0,0,1-.139-.1l.2-.64-.54-.4a.091.091,0,0,1,.053-.163l.672-.005.212-.637A.09.09,0,0,1,7.305,16.923Z" transform="translate(-0.985 -10.195)" fill="#f5f5f5"/><path d="M7.305,19.977l.212.637.672.005a.091.091,0,0,1,.053.163l-.54.4.2.64a.091.091,0,0,1-.139.1l-.546-.391-.546.391a.091.091,0,0,1-.139-.1l.2-.64-.54-.4a.091.091,0,0,1,.053-.163l.672-.005.212-.637A.09.09,0,0,1,7.305,19.977Z" transform="translate(-0.985 -9.915)" fill="#f5f5f5"/><path d="M7.305,23.03l.212.637.672.005a.091.091,0,0,1,.053.163l-.54.4.2.64a.091.091,0,0,1-.139.1l-.546-.391-.546.391a.091.091,0,0,1-.139-.1l.2-.64-.54-.4a.091.091,0,0,1,.053-.163l.672-.005.212-.637A.09.09,0,0,1,7.305,23.03Z" transform="translate(-0.985 -9.635)" fill="#f5f5f5"/><path d="M9.676,12.314l.212.637.672.005a.091.091,0,0,1,.053.163l-.54.4.2.64a.091.091,0,0,1-.139.1l-.546-.391-.546.391a.091.091,0,0,1-.139-.1l.2-.64-.54-.4a.091.091,0,0,1,.053-.163l.672-.005.212-.637A.09.09,0,0,1,9.676,12.314Z" transform="translate(-0.768 -10.617)" fill="#f5f5f5"/><path d="M9.676,15.367,9.888,16l.672.005a.091.091,0,0,1,.053.163l-.54.4.2.64a.091.091,0,0,1-.139.1l-.546-.391-.546.391a.091.091,0,0,1-.139-.1l.2-.64-.54-.4a.091.091,0,0,1,.053-.163L9.291,16l.212-.637A.09.09,0,0,1,9.676,15.367Z" transform="translate(-0.768 -10.337)" fill="#f5f5f5"/><path d="M9.676,18.42l.212.637.672.005a.091.091,0,0,1,.053.163l-.54.4.2.64a.091.091,0,0,1-.139.1l-.546-.391-.546.391a.091.091,0,0,1-.139-.1l.2-.64-.54-.4a.091.091,0,0,1,.053-.163l.672-.005L9.5,18.42A.09.09,0,0,1,9.676,18.42Z" transform="translate(-0.768 -10.058)" fill="#f5f5f5"/><path d="M9.676,21.474l.212.637.672.005a.091.091,0,0,1,.053.163l-.54.4.2.64a.091.091,0,0,1-.139.1l-.546-.391-.546.391a.091.091,0,0,1-.139-.1l.2-.64-.54-.4a.091.091,0,0,1,.053-.163l.672-.005.212-.637A.09.09,0,0,1,9.676,21.474Z" transform="translate(-0.768 -9.778)" fill="#f5f5f5"/><path d="M12.046,10.817l.212.637.672.005a.091.091,0,0,1,.053.163l-.54.4.2.64a.091.091,0,0,1-.139.1l-.547-.39-.546.391a.091.091,0,0,1-.139-.1l.2-.64-.54-.4a.091.091,0,0,1,.053-.163l.672-.005.212-.637A.09.09,0,0,1,12.046,10.817Z" transform="translate(-0.551 -10.755)" fill="#f5f5f5"/><path d="M12.046,13.87l.212.637.672.005a.091.091,0,0,1,.053.163l-.54.4.2.64a.091.091,0,0,1-.139.1l-.547-.391-.546.391a.091.091,0,0,1-.139-.1l.2-.64-.54-.4a.091.091,0,0,1,.053-.163l.672-.005.212-.637A.091.091,0,0,1,12.046,13.87Z" transform="translate(-0.551 -10.475)" fill="#f5f5f5"/><path d="M12.046,16.923l.212.637.672.005a.091.091,0,0,1,.053.163l-.54.4.2.64a.091.091,0,0,1-.139.1l-.547-.391-.546.391a.091.091,0,0,1-.139-.1l.2-.64-.54-.4a.091.091,0,0,1,.053-.163l.672-.005.212-.637A.091.091,0,0,1,12.046,16.923Z" transform="translate(-0.551 -10.195)" fill="#f5f5f5"/><path d="M12.046,19.977l.212.637.672.005a.091.091,0,0,1,.053.163l-.54.4.2.64a.091.091,0,0,1-.139.1l-.547-.391-.546.391a.091.091,0,0,1-.139-.1l.2-.64-.54-.4a.091.091,0,0,1,.053-.163l.672-.005.212-.637A.09.09,0,0,1,12.046,19.977Z" transform="translate(-0.551 -9.915)" fill="#f5f5f5"/><path d="M12.046,23.03l.212.637.672.005a.091.091,0,0,1,.053.163l-.54.4.2.64a.091.091,0,0,1-.139.1l-.547-.391-.546.391a.091.091,0,0,1-.139-.1l.2-.64-.54-.4a.091.091,0,0,1,.053-.163l.672-.005.212-.637A.091.091,0,0,1,12.046,23.03Z" transform="translate(-0.551 -9.635)" fill="#f5f5f5"/><path d="M14.416,12.314l.212.637.672.005a.091.091,0,0,1,.053.163l-.54.4.2.64a.091.091,0,0,1-.139.1l-.546-.391-.546.391a.091.091,0,0,1-.139-.1l.2-.64-.54-.4a.091.091,0,0,1,.053-.163l.672-.005.212-.637A.09.09,0,0,1,14.416,12.314Z" transform="translate(-0.333 -10.617)" fill="#f5f5f5"/><path d="M14.416,15.367l.212.637.672.005a.091.091,0,0,1,.053.163l-.54.4.2.64a.091.091,0,0,1-.139.1l-.546-.391-.546.391a.091.091,0,0,1-.139-.1l.2-.64-.54-.4a.091.091,0,0,1,.053-.163L14.031,16l.212-.637A.09.09,0,0,1,14.416,15.367Z" transform="translate(-0.333 -10.337)" fill="#f5f5f5"/><path d="M14.416,18.42l.212.637.672.005a.091.091,0,0,1,.053.163l-.54.4.2.64a.091.091,0,0,1-.139.1l-.546-.391-.546.391a.091.091,0,0,1-.139-.1l.2-.64-.54-.4a.091.091,0,0,1,.053-.163l.672-.005.212-.637A.09.09,0,0,1,14.416,18.42Z" transform="translate(-0.333 -10.058)" fill="#f5f5f5"/><path d="M14.416,21.474l.212.637.672.005a.091.091,0,0,1,.053.163l-.54.4.2.64a.091.091,0,0,1-.139.1l-.546-.391-.546.391a.091.091,0,0,1-.139-.1l.2-.64-.54-.4a.091.091,0,0,1,.053-.163l.672-.005.212-.637A.09.09,0,0,1,14.416,21.474Z" transform="translate(-0.333 -9.778)" fill="#f5f5f5"/><path d="M16.786,10.817l.212.637.672.005a.091.091,0,0,1,.053.163l-.54.4.2.64a.091.091,0,0,1-.139.1l-.546-.391-.546.391a.091.091,0,0,1-.139-.1l.2-.64-.54-.4a.091.091,0,0,1,.053-.163l.672-.005.212-.637A.09.09,0,0,1,16.786,10.817Z" transform="translate(-0.116 -10.755)" fill="#f5f5f5"/><path d="M16.786,13.87l.212.637.672.005a.091.091,0,0,1,.053.163l-.54.4.2.64a.091.091,0,0,1-.139.1l-.546-.391-.546.391a.091.091,0,0,1-.139-.1l.2-.64-.54-.4a.091.091,0,0,1,.053-.163l.672-.005.212-.637A.09.09,0,0,1,16.786,13.87Z" transform="translate(-0.116 -10.475)" fill="#f5f5f5"/><path d="M16.786,16.923l.212.637.672.005a.091.091,0,0,1,.053.163l-.54.4.2.64a.091.091,0,0,1-.139.1l-.546-.391-.546.391a.091.091,0,0,1-.139-.1l.2-.64-.54-.4a.091.091,0,0,1,.053-.163l.672-.005.212-.637A.09.09,0,0,1,16.786,16.923Z" transform="translate(-0.116 -10.195)" fill="#f5f5f5"/><path d="M16.786,19.977l.212.637.672.005a.091.091,0,0,1,.053.163l-.54.4.2.64a.091.091,0,0,1-.139.1l-.546-.391-.546.391a.091.091,0,0,1-.139-.1l.2-.64-.54-.4a.091.091,0,0,1,.053-.163l.672-.005.212-.637A.09.09,0,0,1,16.786,19.977Z" transform="translate(-0.116 -9.915)" fill="#f5f5f5"/><path d="M16.786,23.03l.212.637.672.005a.091.091,0,0,1,.053.163l-.54.4.2.64a.091.091,0,0,1-.139.1l-.546-.391-.546.391a.091.091,0,0,1-.139-.1l.2-.64-.54-.4a.091.091,0,0,1,.053-.163l.672-.005.212-.637A.09.09,0,0,1,16.786,23.03Z" transform="translate(-0.116 -9.635)" fill="#f5f5f5"/><path d="M19.156,12.314l.212.637.672.005a.091.091,0,0,1,.053.163l-.54.4.2.64a.091.091,0,0,1-.139.1l-.546-.391-.546.391a.091.091,0,0,1-.139-.1l.2-.64-.54-.4a.091.091,0,0,1,.053-.163l.672-.005.212-.637A.09.09,0,0,1,19.156,12.314Z" transform="translate(0.101 -10.617)" fill="#f5f5f5"/><path d="M19.156,15.367l.212.637.672.005a.091.091,0,0,1,.053.163l-.54.4.2.64a.091.091,0,0,1-.139.1l-.546-.391-.546.391a.091.091,0,0,1-.139-.1l.2-.64-.54-.4a.091.091,0,0,1,.053-.163L18.772,16l.212-.637A.09.09,0,0,1,19.156,15.367Z" transform="translate(0.101 -10.337)" fill="#f5f5f5"/><path d="M19.156,18.42l.212.637.672.005a.091.091,0,0,1,.053.163l-.54.4.2.64a.091.091,0,0,1-.139.1l-.546-.391-.546.391a.091.091,0,0,1-.139-.1l.2-.64-.54-.4a.091.091,0,0,1,.053-.163l.672-.005.212-.637A.09.09,0,0,1,19.156,18.42Z" transform="translate(0.101 -10.058)" fill="#f5f5f5"/><path d="M19.156,21.474l.212.637.672.005a.091.091,0,0,1,.053.163l-.54.4.2.64a.091.091,0,0,1-.139.1l-.546-.391-.546.391a.091.091,0,0,1-.139-.1l.2-.64-.54-.4a.091.091,0,0,1,.053-.163l.672-.005.212-.637A.09.09,0,0,1,19.156,21.474Z" transform="translate(0.101 -9.778)" fill="#f5f5f5"/><path d="M21.526,10.817l.212.637.672.005a.091.091,0,0,1,.053.163l-.54.4.2.64a.091.091,0,0,1-.139.1l-.546-.391-.546.391a.091.091,0,0,1-.139-.1l.2-.64-.54-.4a.091.091,0,0,1,.053-.163l.672-.005.212-.637A.09.09,0,0,1,21.526,10.817Z" transform="translate(0.318 -10.755)" fill="#f5f5f5"/><path d="M21.526,13.87l.212.637.672.005a.091.091,0,0,1,.053.163l-.54.4.2.64a.091.091,0,0,1-.139.1l-.546-.391-.546.391a.091.091,0,0,1-.139-.1l.2-.64-.54-.4a.091.091,0,0,1,.053-.163l.672-.005.212-.637A.09.09,0,0,1,21.526,13.87Z" transform="translate(0.318 -10.475)" fill="#f5f5f5"/><path d="M21.526,16.923l.212.637.672.005a.091.091,0,0,1,.053.163l-.54.4.2.64a.091.091,0,0,1-.139.1l-.546-.391-.546.391a.091.091,0,0,1-.139-.1l.2-.64-.54-.4a.091.091,0,0,1,.053-.163l.672-.005.212-.637A.09.09,0,0,1,21.526,16.923Z" transform="translate(0.318 -10.195)" fill="#f5f5f5"/><path d="M21.526,19.977l.212.637.672.005a.091.091,0,0,1,.053.163l-.54.4.2.64a.091.091,0,0,1-.139.1l-.546-.391-.546.391a.091.091,0,0,1-.139-.1l.2-.64-.54-.4a.091.091,0,0,1,.053-.163l.672-.005.212-.637A.09.09,0,0,1,21.526,19.977Z" transform="translate(0.318 -9.915)" fill="#f5f5f5"/><path d="M21.526,23.03l.212.637.672.005a.091.091,0,0,1,.053.163l-.54.4.2.64a.091.091,0,0,1-.139.1l-.546-.391-.546.391a.091.091,0,0,1-.139-.1l.2-.64-.54-.4a.091.091,0,0,1,.053-.163l.672-.005.212-.637A.09.09,0,0,1,21.526,23.03Z" transform="translate(0.318 -9.635)" fill="#f5f5f5"/></g></g></g></svg>