<svg xmlns="http://www.w3.org/2000/svg" width="40" height="40" viewBox="0 0 40 40"><g fill="none" stroke="#fff" stroke-width="1"><circle cx="20" cy="20" r="20" stroke="none"/><circle cx="20" cy="20" r="19.5" fill="none"/></g><g transform="translate(12 12)" opacity="0.78"><path d="M11.575,16a4.426,4.426,0,0,1-2.092-.518,7.812,7.812,0,0,1-1.4.126,7.637,7.637,0,0,1-5.4-2.2A7.423,7.423,0,0,1,.453,8.083,7.5,7.5,0,0,1,.608,6.571,4.327,4.327,0,0,1,0,4.365,4.4,4.4,0,0,1,4.426,0,4.455,4.455,0,0,1,6.78.669,7.841,7.841,0,0,1,8.085.559a7.636,7.636,0,0,1,5.4,2.2A7.465,7.465,0,0,1,15.54,9.7,4.268,4.268,0,0,1,16,11.637,4.4,4.4,0,0,1,11.575,16ZM4.7,9.227a1.127,1.127,0,0,0-.8.292.939.939,0,0,0-.318.709,2.371,2.371,0,0,0,.488,1.36,3.534,3.534,0,0,0,1.256,1.1,5.888,5.888,0,0,0,2.733.566,6.285,6.285,0,0,0,2.384-.415A3.458,3.458,0,0,0,12,11.679,2.829,2.829,0,0,0,12.534,10a2.656,2.656,0,0,0-.311-1.326,2.592,2.592,0,0,0-.86-.895,5.427,5.427,0,0,0-1.307-.587c-.508-.161-1.075-.307-1.687-.436-.492-.112-.847-.2-1.055-.256A3.365,3.365,0,0,1,6.7,6.266a1.354,1.354,0,0,1-.455-.341.647.647,0,0,1-.153-.437.859.859,0,0,1,.473-.722,2.41,2.41,0,0,1,1.322-.322,2.178,2.178,0,0,1,1.275.289,2.5,2.5,0,0,1,.685.836,2.477,2.477,0,0,0,.456.6.969.969,0,0,0,.657.2,1.052,1.052,0,0,0,.784-.324,1.016,1.016,0,0,0,.313-.726,1.8,1.8,0,0,0-.239-.858,2.72,2.72,0,0,0-.743-.822,3.94,3.94,0,0,0-1.259-.619,6.129,6.129,0,0,0-1.781-.232A6.565,6.565,0,0,0,5.8,3.137,3.205,3.205,0,0,0,4.314,4.152,2.419,2.419,0,0,0,3.8,5.674,2.335,2.335,0,0,0,4.29,7.183,3.291,3.291,0,0,0,5.6,8.128a11.1,11.1,0,0,0,2,.59c.575.119,1.046.235,1.4.343a2.13,2.13,0,0,1,.815.443.921.921,0,0,1,.294.713,1.1,1.1,0,0,1-.565.939,2.715,2.715,0,0,1-1.537.395A2.683,2.683,0,0,1,6.9,11.356a1.692,1.692,0,0,1-.64-.49,3.73,3.73,0,0,1-.438-.765,1.73,1.73,0,0,0-.448-.645A1.018,1.018,0,0,0,4.7,9.227Z" fill="#fff"/></g></svg>