<svg xmlns="http://www.w3.org/2000/svg" width="40" height="40" viewBox="0 0 40 40"><g fill="none" stroke="#fff" stroke-width="1"><circle cx="20" cy="20" r="20" stroke="none"/><circle cx="20" cy="20" r="19.5" fill="none"/></g><g transform="translate(11.979 11.999)"><path d="M1.347,4.006a3.18,3.18,0,0,0,1.587-.791,3.287,3.287,0,0,0,.988-2.06c.09-.591.053-.824-.156-1.017A.644.644,0,0,0,2.988.123c-.16.12-.21.246-.246.588a3.151,3.151,0,0,1-.259,1.07A1.885,1.885,0,0,1,.8,2.84c-.409.05-.532.1-.665.252a.619.619,0,0,0,.186.93c.126.063.18.07.459.053a4.454,4.454,0,0,0,.566-.07Z" transform="matrix(0.087, -0.996, 0.996, 0.087, 7.898, 7.574)" fill="#fff"/><path d="M1.342,7.307A6.435,6.435,0,0,0,5.95,4.553,6.6,6.6,0,0,0,7.008,1.61,5.486,5.486,0,0,0,7,.374.756.756,0,0,0,6.7.045a.744.744,0,0,0-.559.02C5.886.195,5.81.4,5.81.959A5.317,5.317,0,0,1,5.2,3.43,5.052,5.052,0,0,1,3.345,5.36a6.342,6.342,0,0,1-2.558.767.847.847,0,0,0-.629.236.6.6,0,0,0-.05.751c.173.269.439.312,1.234.193Z" transform="matrix(0.087, -0.996, 0.996, 0.087, 5.867, 9.666)" fill="#fff"/><path d="M3.116,15.47a1.715,1.715,0,0,0,.306-.153A12.377,12.377,0,0,0,5.7,12.407a1.625,1.625,0,0,0,.258-1.127c-.082-.291-.217-.444-.822-.931A4.53,4.53,0,0,1,4.629,9.9a1.189,1.189,0,0,1-.166-.576A4.284,4.284,0,0,1,5.1,7.528,7.673,7.673,0,0,1,6.385,6.021,7.067,7.067,0,0,1,8.066,4.832c.748-.372,1.2-.467,1.539-.311a1.239,1.239,0,0,1,.2.112c.025.023.222.263.436.528.413.52.508.6.791.7a1.367,1.367,0,0,0,1.1-.1c.281-.145.893-.525,1.289-.8A19,19,0,0,0,15.2,3.509,1.159,1.159,0,0,0,15.337,2.3,5.654,5.654,0,0,0,13.9.512,2.036,2.036,0,0,0,12.673,0a1.786,1.786,0,0,0-.962.2A20.25,20.25,0,0,0,3,6.914,19,19,0,0,0,.288,11.836c-.36.992-.378,1.423-.082,1.931a5.688,5.688,0,0,0,1.067,1.041,3.691,3.691,0,0,0,1.2.722,1.386,1.386,0,0,0,.638-.059Z" transform="translate(0 16.002) rotate(-90)" fill="#fff"/><path d="M1.918,10.677A9.28,9.28,0,0,0,5,9.764,8.391,8.391,0,0,0,7.484,7.973a8.067,8.067,0,0,0,1.7-2.329A11.129,11.129,0,0,0,10.262,1.09c.023-.581.007-.711-.126-.877a.616.616,0,0,0-1,.093,1.614,1.614,0,0,0-.1.688,12.033,12.033,0,0,1-.183,1.727A7.951,7.951,0,0,1,5.77,7.85,8.1,8.1,0,0,1,1.093,9.5c-.632.037-.742.06-.885.169a.65.65,0,0,0-.023.93c.156.143.266.163.808.146.283-.01.7-.043.925-.07Z" transform="matrix(0.087, -0.996, 0.996, 0.087, 4.436, 10.232)" fill="#fff"/></g></svg>