<svg xmlns="http://www.w3.org/2000/svg" width="40" height="40" viewBox="0 0 40 40"><g fill="none" stroke="#fff" stroke-width="1"><circle cx="20" cy="20" r="20" stroke="none"/><circle cx="20" cy="20" r="19.5" fill="none"/></g><g transform="translate(12.039 12)" opacity="0.78"><path d="M0,16H0l1.124-4.107a7.928,7.928,0,1,1,6.87,3.971h0A7.939,7.939,0,0,1,4.2,14.9Zm4.4-2.538h0l.241.143a6.591,6.591,0,1,0-2.226-2.17l.157.249L1.9,14.117,4.4,13.462Zm5.658-1.72a2.489,2.489,0,0,1-.766-.117,11.362,11.362,0,0,1-1.13-.418A8.571,8.571,0,0,1,4.81,8.266l-.035-.05a3.772,3.772,0,0,1-.809-2.05,2.184,2.184,0,0,1,.654-1.61l.039-.042a.723.723,0,0,1,.529-.248c.127,0,.262,0,.379.007h.063c.122,0,.252.026.383.34.053.127.13.314.211.512l0,.006c.17.415.364.886.4.953a.362.362,0,0,1,.016.347l-.027.055a1.122,1.122,0,0,1-.171.275c-.033.039-.068.081-.1.123-.067.082-.136.166-.195.224-.1.1-.2.2-.087.4a5.939,5.939,0,0,0,1.1,1.373,5.145,5.145,0,0,0,1.463.925c.055.024.1.042.13.058a.49.49,0,0,0,.215.064.275.275,0,0,0,.214-.113c.091-.1.489-.57.627-.777a.274.274,0,0,1,.233-.15.655.655,0,0,1,.213.051c.178.065,1.127.531,1.354.644l.109.053a.638.638,0,0,1,.271.178,1.655,1.655,0,0,1-.115.942,2.033,2.033,0,0,1-1.338.942A3.229,3.229,0,0,1,10.055,11.742Z" transform="translate(0 0)" fill="#fff"/></g></svg>